<svg xmlns="http://www.w3.org/2000/svg" xmlns:xlink="http://www.w3.org/1999/xlink" viewBox="0 0 207.27 195.08"><defs><style>.cls-1{fill:url(#linear-gradient);}</style><linearGradient id="linear-gradient" y1="97.54" x2="207.27" y2="97.54" gradientUnits="userSpaceOnUse"><stop offset="0" stop-color="#ff5a19"/><stop offset="1" stop-color="#ff13bd"/></linearGradient></defs><g id="Layer_2" data-name="Layer 2"><g id="Layer_1-2" data-name="Layer 1"><path class="cls-1" d="M23.25,63.56a10,10,0,0,0,3.44,16l66.12,28.09a20.8,20.8,0,0,1,11.44,15.52L115,192.81a2,2,0,0,1-2.66,2.13L24.73,160.51a24.42,24.42,0,0,1-15.19-19l-1.11-7.17,47.43,19.83a2,2,0,0,0,2.7-2.11l-4.9-31.83a19.6,19.6,0,0,0-11.9-15.14L10,92A17.09,17.09,0,0,1,6.15,63.3L81.45.48Zm102.58,131,75.29-62.82a17.1,17.1,0,0,0-3.85-28.69L165.52,90a19.62,19.62,0,0,1-11.91-15.14L148.71,43a2,2,0,0,1,2.7-2.12l47.43,19.84-1.11-7.18a24.42,24.42,0,0,0-15.19-19L95,.14A2,2,0,0,0,92.3,2.27L103,71.93a20.8,20.8,0,0,0,11.44,15.53l66.12,28.09a10,10,0,0,1,3.44,16Zm5.25-26,34.25-36.51a2.59,2.59,0,0,0-.92-4.18l-42.52-17.2a2.6,2.6,0,0,0-3.54,2.8l8.27,53.7A2.6,2.6,0,0,0,131.08,168.64ZM75.71,32.41,41.46,68.92a2.59,2.59,0,0,0,.92,4.18L84.9,90.3a2.6,2.6,0,0,0,3.54-2.8L80.17,33.8A2.6,2.6,0,0,0,75.71,32.41Z"/></g></g></svg>